{
    "asset" : {
        "generator" : "Khronos glTF Blender I/O v1.6.16",
        "version" : "2.0"
    },
    "scene" : 0,
    "scenes" : [
        {
            "name" : "Scene",
            "nodes" : [
                0,
                1,
                2
            ]
        }
    ],
    "nodes" : [
        {
            "name" : "Light",
            "rotation" : [
                0.16907575726509094,
                0.7558803558349609,
                -0.27217137813568115,
                0.570947527885437
            ],
            "translation" : [
                4.076245307922363,
                5.903861999511719,
                -1.0054539442062378
            ]
        },
        {
            "mesh" : 0,
            "name" : "Landscape",
            "translation" : [
                -0.056795887649059296,
                0.10827420651912689,
                -0.09544634819030762
            ]
        },
        {
            "name" : "Camera.001",
            "rotation" : [
                0.38115769624710083,
                0.611270546913147,
                -0.47579216957092285,
                0.5046671628952026
            ],
            "translation" : [
                2.1211390495300293,
                0.4232874810695648,
                -0.8165336847305298
            ]
        }
    ],
    "materials" : [
        {
            "doubleSided" : true,
            "name" : "Material.001",
            "pbrMetallicRoughness" : {
                "baseColorFactor" : [
                    0.008671602234244347,
                    0.04010849446058273,
                    0.8000000715255737,
                    1
                ],
                "roughnessFactor" : 0.738916277885437
            }
        }
    ],
    "meshes" : [
        {
            "name" : "Landscape",
            "primitives" : [
                {
                    "attributes" : {
                        "POSITION" : 0,
                        "NORMAL" : 1
                    },
                    "indices" : 2,
                    "material" : 0
                }
            ]
        }
    ],
    "accessors" : [
        {
            "bufferView" : 0,
            "componentType" : 5126,
            "count" : 61744,
            "max" : [
                1,
                0.6337766051292419,
                1
            ],
            "min" : [
                -1,
                0,
                -1
            ],
            "type" : "VEC3"
        },
        {
            "bufferView" : 1,
            "componentType" : 5126,
            "count" : 61744,
            "type" : "VEC3"
        },
        {
            "bufferView" : 2,
            "componentType" : 5123,
            "count" : 96774,
            "type" : "SCALAR"
        }
    ],
    "bufferViews" : [
        {
            "buffer" : 0,
            "byteLength" : 740928,
            "byteOffset" : 0
        },
        {
            "buffer" : 0,
            "byteLength" : 740928,
            "byteOffset" : 740928
        },
        {
            "buffer" : 0,
            "byteLength" : 193548,
            "byteOffset" : 1481856
        }
    ],
    "buffers" : [
        {
            "byteLength" : 1675404,
            "uri" : "data:application/octet-stream;base64,"
        }
    ]
}
