<?xml version="1.0" standalone="no"?>
<!DOCTYPE svg PUBLIC "-//W3C//DTD SVG 20010904//EN"
 "http://www.w3.org/TR/2001/REC-SVG-20010904/DTD/svg10.dtd">
<svg version="1.0" xmlns="http://www.w3.org/2000/svg"
 width="260.000000pt" height="260.000000pt" viewBox="0 0 260.000000 260.000000"
 preserveAspectRatio="xMidYMid meet">
<metadata>
Created by potrace 1.11, written by Peter Selinger 2001-2013
</metadata>
<g transform="translate(0.000000,260.000000) scale(0.100000,-0.100000)"
fill="#000000" stroke="none">
<path d="M0 1300 l0 -1300 1300 0 1300 0 0 1300 0 1300 -1300 0 -1300 0 0
-1300z m1058 834 c17 -5 22 -14 22 -40 0 -18 -4 -35 -8 -38 -5 -3 -45 -8 -89
-12 l-81 -7 2 -566 c1 -642 0 -655 -76 -811 -73 -151 -191 -246 -336 -271 -79
-14 -134 1 -183 50 -57 56 -64 127 -19 184 25 32 88 51 122 38 23 -8 70 -56
113 -114 28 -38 62 -39 89 -4 l21 29 -3 651 c-1 359 -6 686 -10 727 l-7 75
-95 10 -95 10 -3 43 -3 44 218 -6 c120 -4 252 -2 293 2 102 13 102 13 128 6z
m567 -9 c397 0 400 0 459 -24 75 -30 134 -84 175 -160 40 -76 51 -137 40 -219
-13 -88 -38 -142 -99 -206 -88 -93 -218 -133 -351 -107 -94 19 -128 38 -135
79 -4 18 -3 37 2 42 5 4 43 10 85 12 141 6 201 76 201 232 0 141 -48 219 -154
251 -83 24 -196 14 -199 -18 -2 -21 3 -1032 5 -1034 1 -1 46 -8 101 -15 107
-14 114 -20 101 -73 l-6 -23 -262 2 c-145 0 -288 -1 -318 -4 l-55 -5 -3 36
c-3 32 0 37 23 43 63 16 136 49 145 66 6 11 6 159 0 416 -11 465 -17 562 -35
588 -9 12 -42 25 -87 35 l-73 17 -3 43 c-3 41 -2 42 20 35 13 -4 203 -8 423
-9z"/>
</g>
</svg>
